<?xml version="1.0" standalone="no"?><!DOCTYPE svg PUBLIC "-//W3C//DTD SVG 1.1//EN" "http://www.w3.org/Graphics/SVG/1.1/DTD/svg11.dtd"><svg class="icon" width="200px" height="200.00px" viewBox="0 0 1024 1024" version="1.1" xmlns="http://www.w3.org/2000/svg"><path fill="#333333" d="M815.8 713.5h-81c-16.3 0-29.4-13.2-29.4-29.4V582.8c0-16.3 13.2-29.4 29.4-29.4s29.4 13.2 29.4 29.4v71.8h51.6c16.3 0 29.4 13.2 29.4 29.4s-13.2 29.5-29.4 29.5zM734.5 895.8c-127.9 0-232-104.1-232-232s104.1-231.9 232-231.9 231.9 104 231.9 231.9-103.9 232-231.9 232z m0-405c-95.4 0-173.1 77.6-173.1 173.1 0 95.4 77.6 173.1 173.1 173.1 95.4 0 173.1-77.6 173.1-173.1 0-95.4-77.6-173.1-173.1-173.1zM432.5 835H208.2c-38.6 0-69.9-31.4-69.9-69.9V319.5c0-16.3 13.2-29.4 29.4-29.4h567c16.3 0 29.4 13.2 29.4 29.4 0 16.3-13.2 29.4-29.4 29.4H197.2V765c0 6.1 5 11.1 11.1 11.1h224.2c16.3 0 29.4 13.2 29.4 29.4 0 16.3-13.2 29.5-29.4 29.5zM776.5 348.9H126.2c-37.9 0-68.7-30.8-68.7-68.7v-83.4c0-37.9 30.8-68.7 68.7-68.7h650.3c37.9 0 68.7 30.8 68.7 68.7v83.4c0 37.9-30.8 68.7-68.7 68.7zM126.2 187c-5.4 0-9.8 4.4-9.8 9.8v83.4c0 5.4 4.4 9.8 9.8 9.8h650.3c5.4 0 9.8-4.4 9.8-9.8v-83.4c0-5.4-4.4-9.8-9.8-9.8H126.2z" /></svg>