<?xml version="1.0" standalone="no"?><!DOCTYPE svg PUBLIC "-//W3C//DTD SVG 1.1//EN" "http://www.w3.org/Graphics/SVG/1.1/DTD/svg11.dtd"><svg class="icon" width="200px" height="200.00px" viewBox="0 0 1024 1024" version="1.1" xmlns="http://www.w3.org/2000/svg"><path fill="#333333" d="M703.41869815 599.20034433H543.40820263v-77.54826357h153.34799679v-58.64606279H561.18491299l113.34286143-106.93158838-39.99508682-37.72400889-122.23624131 115.27227247L390.06020498 318.3504207l-39.99508769 37.72400889 113.34286143 106.93158838H327.83669229v58.68625869h153.34799765v77.54826357H321.17419443v60.72620889h160.01049551v171.83818828h62.22351269v-171.83818828h160.01049552z m0 1e-8"  /><path fill="#333333" d="M841.03998418 962H183.5931043c-67.05708926 0-121.5931043-50.56665293-121.5931043-112.71982237V229.06490557c0-62.15316943 54.53601416-112.74996973 121.5931043-112.74996973h163.5377001a30.29778545 30.29778545 0 1 1 0 60.58552324H183.5931043c-33.55366729 0-60.85684599 23.39411133-60.856846 52.13429912v620.24541943c0 28.74018867 27.30317871 52.13429912 60.856846 52.1343h657.44687988c33.55366729 0 60.85684599-23.39411133 60.856846-52.1343V229.06490557c0-28.74018867-27.30317871-52.13429912-60.856846-52.1343H666.53880576a30.29778545 30.29778545 0 1 1 0-60.58552237h174.50117841c67.01689336 0 121.5931043 50.56665293 121.5931043 112.71982237v620.21527206c-0.05024531 62.15316943-54.57621094 112.71982237-121.59310429 112.71982237z"  /><path fill="#333333" d="M335.75531768 62v169.28573818l84.76345722-84.64286865L335.75531768 62z"  /></svg>